<?xml version="1.0" encoding="UTF-8"?>
<svg id="Layer_1" xmlns="http://www.w3.org/2000/svg" version="1.1" viewBox="0 0 1536 1024">
  <!-- Generator: Adobe Illustrator 29.5.1, SVG Export Plug-In . SVG Version: 2.1.0 Build 141)  -->
  <defs>
    <style>
      .st0 {
        fill: #fcfbfd;
      }

      .st1 {
        fill: #fbfbfc;
      }

      .st2 {
        fill: #4d179a;
      }

      .st3 {
        fill: #fcfbfc;
      }

      .st4 {
        display: none;
      }

      .st5 {
        fill: #fdfdfd;
      }
    </style>
  </defs>
  <path class="st4" d="M-613.66-346.09h2758.02v1818.1H-613.66V-346.09Z"/>
  <path class="st2" d="M158.26,223.62h127.87c31.74,0,63.49-.02,95.24-.02h100.03c49.34,0,98.67-.02,148.01,0h50.96c58.94,0,117.85,0,176.77-.03,66.19-.03,132.38-.03,198.57-.03h26.43c27.98,0,55.94,0,83.91-.02h207.52c1.96,0,3.93,0,5.95-.03,42.91.2,79.59,19.24,109.71,48.59,33.3,35.9,41.62,78.51,41.59,125.4,0,2.88.02,5.73.04,8.61.04,7.73.04,15.43.04,23.15,0,4.85,0,9.67.02,14.52.04,16.96.06,33.89.06,50.85,0,15.69.04,31.41.09,47.11.06,13.56.07,27.13.07,40.69,0,8.06,0,16.14.06,24.2.25,57.65-3.54,109.05-45.75,153.54-30.69,28.91-71.61,45.33-113.91,45.06-2.13,0-4.29,0-6.46.02h-36.81c-11.2.02-22.41.02-33.61,0-16.66-.02-33.33,0-49.99,0-29.77.03-59.52.02-89.3,0h-104.46c-65.82,0-131.67,0-197.5-.03-58.44-.02-116.91-.02-175.35,0-65.71.03-131.4.03-197.1.02h-242.82c-11.07,0-22.16,0-33.22-.02h-18.91c-54.15.13-98.8-6.89-139.21-45.4C13.89,726.91,1.41,686.64,1.53,641.41c0-3.12-.02-6.25-.04-9.37-.04-8.43-.04-16.85-.02-25.29v-21.18c-.02-16.67-.02-33.36,0-50.03.02-17.13,0-34.29-.06-51.42-.04-14.77-.06-29.57-.04-44.33,0-8.8,0-17.6-.04-26.4-.04-8.27-.02-16.56,0-24.83v-9.06c-.14-24.46,3-47.05,14.85-69.02.63-1.17,1.24-2.37,1.89-3.57,20.61-38.21,54.35-65.91,96.1-79.1,14.48-4.25,29.2-4.14,44.16-4.12l-.06-.07h-.02Z"/>
  <path class="st0" d="M481.42,344.04c1.63,0,3.28,0,4.95.02,21.49.34,55.84,1.35,72.47,16.51,2.06,15.03-2.87,30.04-7.18,44.39l-1.79,1.77c-9.54-.09-18.04-2.01-26.72-5.82-18.17-6.11-49.21-7.47-66.76.73-8.43,5.32-14.63,11.55-17.84,21.09-1.45,10.38-.28,18.14,6.02,26.7,8.86,10.4,21.06,16.43,33.37,21.91,1.48.67,2.97,1.37,4.47,2.06,7.25,3.32,14.55,6.57,21.85,9.78,30.22,13.39,54.96,30.74,67.5,62.07,1.78,6.48,2.71,12.85,3.25,19.53.13,1.14.23,2.29.36,3.46,1.18,21.24-6.66,47.05-20.45,63.33-23.58,24.59-52.39,33.8-85.99,34.82-32.86.6-68.49-1.26-96.82-19.92-2.92-15.56,1.65-31.66,7.18-46.17l3.59-3.55c6.03.59,11.31,3.57,16.75,6.09,26.29,12.05,57.26,19.9,85.6,9.89,9.57-4.14,15.51-9.34,21.55-17.76,3.45-10.47,3.27-21.27-.9-31.41-12.05-17.46-31.23-24.79-49.94-33.29-33.98-15.5-64.5-31.82-78.6-68.15-7.27-24.87-3.55-50.03,8.93-72.46,14.93-23.58,36.61-34.64,63.04-41.49,2.24-.64,4.49-1.28,6.79-1.94,8.43-2.06,16.65-2.22,25.3-2.17v-.06h.02-.02Z"/>
  <path class="st3" d="M1208.86,342.81c.6,62.1,1.18,124.21,1.79,188.2,7.85-8.72,15.4-17.6,22.66-26.63,8.32-10.87,17.05-21.38,25.82-31.86,6.64-7.93,13.16-15.93,19.49-24.12,1.36-1.74,2.64-3.2,3.85-4.38,4.53-.16,9-.21,13.54-.17h4.09c4.33,0,8.67.03,13,.06,2.92,0,5.88,0,8.8.02,7.2.02,14.41.06,21.62.09.72,2.78,1.31,5.75,1.79,8.87-1.85,2.71-4.19,5.45-6.97,8.2-6.06,6.25-11.8,12.55-17.27,19.31-6.49,7.92-13.23,15.49-20.18,22.99-5.72,6.37-11.07,13.01-16.47,19.65-3.25,3.8-6.56,7.16-10.25,10.51-1.4,1.51-2.82,3-4.27,4.55.57,5.73,3.19,9.67,6.44,14.36.95,1.38,1.9,2.75,2.89,4.19,1.02,1.46,2.06,2.91,3.12,4.42,1.06,1.51,2.12,3.04,3.21,4.59,7.28,10.37,14.86,20.42,22.75,30.34,8.82,11.21,17.08,22.85,25.42,34.39,2.26,3.11,4.56,6.18,6.87,9.23,1.15,1.53,2.28,3.07,3.46,4.65.95,1.26,1.9,2.52,2.89,3.8,2.36,4.44,2.06,7.56,1.92,12.5-9.23.39-18.46.7-27.69.87-3.14.09-6.26.2-9.41.32-17.26.74-28.53-.67-33.87-4.25-3.31-4.14-5.65-8.24-8.05-12.95-1.9-2.77-3.85-5.52-5.83-8.26-1.92-2.78-3.82-5.59-5.72-8.4-7.37-10.74-14.82-21.38-22.59-31.82-2.8-3.76-5.55-7.56-8.29-11.38-.81-1.14-1.63-2.27-2.48-3.45-1.6-2.22-3.19-4.45-4.77-6.69-3-4.18-5.89-8.07-9.55-11.7-.6,31.64-1.18,63.28-1.79,95.87-5.31,2.63-10.12,2.01-16.05,2.01h-37.94c-3.5-.16-5.85-.81-7.06-2.01-.18-4.01-.23-8.04-.23-12.05v-16.77c0-3.07,0-6.15-.02-9.21,0-8.36-.02-16.74-.02-25.1v-20.94c0-16.46-.02-32.9,0-49.36,0-16.99,0-34-.06-50.99-.02-14.58-.04-29.14-.04-43.71,0-8.72,0-17.42-.02-26.13v-52.87c.31-3.54,1.65-6.5,4.04-8.86,2.4-.37,5.08-.63,8.02-.73,1.62-.07,3.24-.14,4.9-.21,1.69-.06,3.39-.1,5.14-.16,1.65-.07,3.28-.14,5-.21,19.59-.77,31.06-.34,34.41,1.31l-.06.06h0l.02-.02Z"/>
  <path class="st1" d="M838.96,438.68c2.21.13,4.42.27,6.66.39,19.84,2.1,41.19,11.48,54.23,26.7,6.9,9.66,11.53,18.3,14.52,29.72.33,1.15.65,2.31.99,3.48,3.82,15.72,3.09,31.73,3.04,47.79v9.71c0,6.75,0,13.48-.04,20.22-.04,8.66-.04,17.31-.04,25.97,0,6.66,0,13.32-.02,19.97v9.59c0,4.44-.02,8.87-.04,13.32v4.03c-.04,6.03-.72,9.71-2.06,11.04-3.7.17-7.4.23-11.11.23h-34.35c-3.19-.16-5.38-.81-6.59-2.01-.41-3.58-.74-7.17-1.01-10.76-.16-1.97-.31-3.94-.45-5.95-.11-1.51-.21-3.04-.33-4.59-1.06.9-2.14,1.81-3.24,2.74-25.27,20.75-48.65,28.64-81.15,25.67-19.09-3.89-32.08-14.4-43.92-29.22-7.06-11.47-9.13-22.04-8.94-35.34,0-1.5.04-2.98.06-4.51.54-18.81,6.37-30.47,19.63-44.09,13.4-12.08,28.42-17.27,45.75-21.77,2.03-.64,4.06-1.3,6.16-1.95,11.73-2.88,24.05-1.97,36.04-1.81,2.53.02,5.07.03,7.59.06,6.14.03,12.29.1,18.44.17-.52-3.71-1.06-7.44-1.62-11.15-.31-2.08-.6-4.14-.92-6.26-1.35-7.1-3.14-11.14-8.26-16.32-19.32-12.11-43.58-11.04-65.36-6.59-6.84,1.87-13.37,4.38-19.91,7.12-5.19,1.46-8.35.9-13.49-.51-3.09-12.59-4.04-24.35-3.59-37.28,27.54-17.24,61.69-19.74,93.37-17.76l-.06-.06h.01Z"/>
  <path class="st5" d="M201.88,349.43c1.56,0,3.12,0,4.73.02,1.63,0,3.28,0,4.97-.02h27.64c7.92,0,15.81,0,23.74.02,10.16.02,20.31,0,30.47,0h34.61c5.22,0,10.45,0,15.67.02,1.56,0,3.12,0,4.73-.02,7.13.06,12.04,1.38,14.71,4.03.27,3.09.4,6.57.36,10.44,0,2.08-.02,4.14-.04,6.29-.04,2.17-.07,4.37-.09,6.59,0,2.18-.04,4.37-.06,6.62-.04,5.42-.11,10.83-.18,16.23-4.83,2.38-8.66,2.06-14.05,2.15-2.19.03-4.38.07-6.64.1-2.4.03-4.8.06-7.2.09-2.44.03-4.9.07-7.34.1-6.45.1-12.92.17-19.36.27-6.59.09-13.16.2-19.75.28-12.93.2-25.84.37-38.77.55-.6,27.54-1.18,55.08-1.79,83.45,6.98-.02,13.95-.03,21.15-.07,6.73,0,13.44-.02,20.18-.03,4.68,0,9.37-.02,14.08-.03,6.73-.02,13.44-.03,20.18-.03,2.12,0,4.22-.02,6.39-.03h11.1c2.6.14,4.49.8,5.69,1.98.18,3.39.23,6.8.23,10.21v6.26c0,2.18,0,4.35-.02,6.6,0,2.18,0,4.35.02,6.6v12.08c-.16,2.93-.82,4.99-2.03,6.18-3.04.16-6.06.21-9.1.2h-5.89c-2.1,0-4.23,0-6.39-.03h-6.52c-6.9,0-13.8-.03-20.68-.06-4.67,0-9.31,0-13.98-.02-11.46-.02-22.91-.06-34.38-.09v4.63c.04,14.4.07,28.8.09,43.19,0,7.4.02,14.81.04,22.21.02,7.13.04,14.28.04,21.41,0,2.74,0,5.45.02,8.19v18.03c-.14,3.25-.81,5.45-2.01,6.63-4.23.17-8.43.24-12.68.23h-35.86c-5.8-.02-9.37-.7-10.72-2.02-.18-3.92-.23-7.85-.23-11.79v-16.4c0-3,0-6-.02-9,0-8.19-.02-16.36-.02-24.53v-20.45c0-16.09-.02-32.15,0-48.24,0-16.62,0-33.22-.06-49.84-.02-14.24-.04-28.48-.04-42.72,0-8.53,0-17.03-.02-25.55v-51.69c.86-10.01,6.29-9.18,15.16-9.23l-.04.03h0v.02Z"/>
  <path class="st0" d="M663,380.09v63.91c10.97-.06,21.96-.1,32.93-.16h6.18c2.1,0,4.22,0,6.36-.03,3.21.13,5.41.78,6.6,1.97.45,6.46.34,12.95.34,19.43.02,1.83.04,3.65.07,5.54v5.28c0,1.6,0,3.21.02,4.86-.28,2.64-1.63,5.15-4.02,7.5-3.25.27-6.9.39-10.96.36-2.17,0-4.34-.02-6.59-.03-2.28-.03-4.56-.06-6.91-.09-2.3,0-4.6-.03-6.97-.06-5.69-.03-11.37-.1-17.06-.17.14,13.65.33,27.29.52,40.92.09,6.33.18,12.68.23,19.01.07,6.12.14,12.25.25,18.37.06,3.46.09,6.9.11,10.37-.13,12.92,2.5,25.06,7.86,36.38,7.86,6.07,15.51,4.94,25.14,4.55,2.7-.34,5.38-.7,8.08-1.1,2.09-.21,4.15-.44,6.29-.67,2.39,2.37,3.73,4.78,4,7.2-.02,1.47-.04,2.93-.06,4.45,0,1.6-.02,3.18-.04,4.81-.04,1.67-.07,3.35-.09,5.05,0,1.67-.04,3.35-.06,5.08-.04,4.15-.11,8.29-.18,12.45-21.32,12.71-46.6,13.76-70.82,8.66-15.78-4.45-26.18-13.92-34.45-27.73-7.1-16.56-6.53-33.23-6.41-50.89v-8.42c0-7.33.06-14.66.09-21.98.04-7.49.06-15,.07-22.49.04-14.69.11-29.35.18-44.03-2.31.02-4.63.03-7,.07-3.01,0-6.03.03-9.04.06-1.53,0-3.05.03-4.63.06h-4.4c-1.35,0-2.7.02-4.07.03-2.12-.13-3.77-.78-4.97-1.97-.45-6.46-.34-12.95-.34-19.43-.02-1.83-.04-3.65-.07-5.54v-5.28c0-1.6,0-3.21-.02-4.86.28-2.64,1.63-5.15,4.02-7.5,4.92-.55,9.65-.9,14.58-1.1,4.67-.21,9.34-.44,14.15-.67.6-17.57,1.18-35.16,1.79-53.27,5.85-2.89,9.55-4.28,15.74-5.45,1.63-.3,3.27-.63,4.94-.94,1.69-.3,3.38-.63,5.11-.94,1.67-.32,3.38-.64,5.08-.97,14.29-2.67,23.76-2.85,28.37-.57h.04v-.02h.02Z"/>
  <path class="st0" d="M1120.48,451.73c3.75,5.01,2.12,9.59,1.35,15.5-1.63,8.94-3.92,17.72-6.33,26.49-8.01,2.41-11.87.96-19.3-2.55-18.01-7.2-37.16-7.69-55.45-.89-16.96,8.24-24.9,19.74-31.2,37.18-5.72,21.58-3,46.85,7.71,66.35,9.01,13.15,21.73,20.64,37.19,24.2,18.53,1.72,34.11-.36,50.51-9.16,4.6-2.06,7.58-1.03,12.34.28,3.72,9.07,4.02,16.8,3.8,26.42,0,1.38-.04,2.78-.06,4.22-.04,3.41-.11,6.8-.18,10.21-26.22,14.22-51.5,16.6-80.8,15.98-1.56-.03-3.16-.07-4.76-.09-23.25-1.5-48.91-14.73-64.93-31.09-24-28.51-29.57-62-26.76-97.83,2.73-23.69,10.99-42.7,26.42-60.97,1.06-1.28,2.14-2.55,3.24-3.87,31.5-34.27,107.54-50.12,147.2-20.37h.04v-.02.02Z"/>
  <path class="st2" d="M858.71,561.19c.27,6.87.41,13.76.55,20.64.07,1.94.14,3.89.23,5.89.16,10.8-1.49,18.3-5,22.53-13.84,12.16-25.88,15.73-44.17,15.42-9.71-1-14.21-5.35-20.44-12.32-6.25-8.7-6.06-16.87-4.83-27.31,3.75-9.77,11.6-15,20.78-19.53,16.93-6.9,34.85-5.7,52.85-5.32h.02v.02h0Z"/>
</svg>